Coordinates
version=1
nRows=15
nColumns=43
inDegrees=yes

Units are S.I. units (second, meters, Newtons, ...)
Angles are in degrees.

endheader
time	pelvis_tilt	pelvis_list	pelvis_rotation	pelvis_tx	pelvis_ty	pelvis_tz	hip_flexion_r	hip_adduction_r	hip_rotation_r	knee_angle_r	ankle_angle_r	subtalar_angle_r	mtp_angle_r	hip_flexion_l	hip_adduction_l	hip_rotation_l	knee_angle_l	ankle_angle_l	subtalar_angle_l	mtp_angle_l	lumbar_extension	lumbar_bending	lumbar_rotation	neck_flexion	neck_lateral_bending	neck_rotation	arm_flex_r	arm_add_r	arm_rot_r	elbow_flex_r	pro_sup_r	wrist_flex_r	wrist_dev_r	hand_finger_flex_r	arm_flex_l	arm_add_l	arm_rot_l	elbow_flex_l	pro_sup_l	wrist_flex_l	wrist_dev_l	hand_finger_flex_l
      0.50000000	     15.53138605	     -4.07623393	      7.13373381	      0.12431868	      0.92684976	      0.37621074	     -7.84878528	      7.57739950	    -10.55484573	    -18.53898335	     16.73304597	     -8.74888555	      0.00000000	     -5.56492778	    -10.70671088	     -0.33122706	    -62.16302513	      4.44735757	     -7.71797454	      0.00000000	    -18.66527803	      5.90867012	     -4.74645903	     -8.43365128	     -2.49821663	     -2.53666509	    -12.85800969	    -12.11617800	     -2.21129332	     50.27649439	    -67.72819659	     -7.82487768	    -22.02551057	      0.37565150	     -3.81196282	    -12.20446183	     -3.94235459	     71.48736041	    -57.99576468	    -18.06812470	     -2.11682525	     31.42599842
      0.50500000	     15.51255763	     -3.94189821	      6.97295314	      0.13018404	      0.92751524	      0.37700316	     -8.51357463	      7.51821463	    -10.56861807	    -18.04242545	     16.79098668	     -8.70798271	      0.00000000	     -4.62664019	    -10.53646251	     -0.58372043	    -62.24402949	      4.51663818	     -7.56605154	      0.00000000	    -18.81045895	      5.63059586	     -4.44194567	     -8.21956042	     -2.40083296	     -2.65879527	    -12.42342504	    -12.21273169	     -2.19367011	     50.62446900	    -67.73140881	     -7.74385567	    -21.95312945	      0.43441370	     -4.28961844	    -12.12677654	     -3.93478061	     70.90189151	    -57.94471256	    -18.00748424	     -2.18997239	     31.36317087
      0.51000000	     15.64465046	     -3.53603818	      6.60643498	      0.13661789	      0.92856390	      0.37776720	     -9.36326388	      7.09581125	    -10.49967842	    -17.71430120	     17.29861054	     -7.92501426	      0.00000000	     -4.27974920	    -10.00747356	     -0.90859548	    -61.87382438	      5.33424140	     -6.28783541	      0.00000000	    -18.99883334	      5.06820266	     -3.92587746	     -8.36277821	     -2.35130674	     -3.05320932	    -12.23074660	    -12.40241421	     -1.97050623	     51.06326978	    -67.74685389	     -6.90115641	    -21.26240376	      1.07925518	     -4.61531244	    -12.01766844	     -3.68503518	     69.79724702	    -57.27463932	    -17.47359616	     -2.41856176	     30.84208093
      0.51500000	     15.61361417	     -3.34583837	      6.46679957	      0.14307929	      0.92922331	      0.37834589	     -9.97228133	      6.95288515	    -10.45495546	    -17.41462055	     17.44378532	     -7.78903530	      0.00000000	     -3.68513838	     -9.62845951	     -0.88021184	    -61.52911326	      5.93144603	     -6.21527528	      0.00000000	    -19.00258832	      4.75306615	     -3.63454804	     -8.42667747	     -2.18696757	     -3.13706059	    -11.99476157	    -12.53671124	     -2.01271066	     51.57250919	    -67.74524143	     -6.80993985	    -21.00618080	      1.21455998	     -5.01211147	    -11.72618642	     -3.91087721	     68.81349219	    -57.12568305	    -17.45568023	     -2.63196594	     30.69277277
      0.52000000	     15.75767630	     -2.82214090	      6.14647986	      0.14949917	      0.93019523	      0.37935551	    -10.68898633	      6.35753278	    -10.82141695	    -17.39891018	     18.22063261	     -6.54937756	      0.00000000	     -3.47751954	     -9.00474297	     -1.20502528	    -60.76357390	      6.86490823	     -5.28170827	      0.00000000	    -19.24490924	      4.01159745	     -3.19771452	     -8.51514705	     -2.04596973	     -3.44290461	    -11.70370283	    -12.49645482	     -2.26905136	     51.98215786	    -68.30467925	     -6.52754492	    -20.90415676	      1.52375055	     -5.34962378	    -11.73759182	     -3.83176747	     67.97434564	    -55.62265259	    -17.47313160	     -2.89683486	     29.96540582
      0.52500000	     15.71653011	     -2.73527937	      6.09351628	      0.15535327	      0.93078074	      0.37992123	    -11.29784120	      6.35580115	    -10.82483307	    -16.94108557	     18.24975049	     -6.50422599	      0.00000000	     -2.76126008	     -8.84481603	     -1.26989793	    -60.18601212	      7.11553363	     -5.28792760	      0.00000000	    -19.29871544	      3.83618473	     -3.04401154	     -8.44626103	     -1.91714387	     -3.52622820	    -11.32071456	    -12.63775311	     -2.25591148	     52.48393301	    -68.30852701	     -6.48924254	    -20.85878611	      1.56824287	     -5.71836123	    -11.57202706	     -4.05922517	     67.11975551	    -55.51553916	    -17.43279963	     -3.01634029	     29.88882378
      0.53000000	     16.22632782	     -2.31867816	      5.83881980	      0.16158879	      0.93233082	      0.38037212	    -12.80075179	      5.97975677	    -11.01506329	    -16.07484798	     18.31115054	     -5.91134607	      0.00000000	     -2.94417030	     -8.28980630	     -1.49086734	    -59.25293051	      8.06494970	     -4.67603595	      0.00000000	    -19.93765443	      3.32467198	     -2.64176257	     -8.55938743	     -1.93991630	     -3.78425406	    -10.99462391	    -12.79580888	     -2.28955025	     53.07419811	    -68.85044819	     -6.21638314	    -21.13161624	      1.85720737	     -6.01159076	    -11.30004589	     -4.20227087	     66.04668849	    -53.70889956	    -16.33250903	     -2.68446609	     29.32107111
      0.53500000	     16.48639527	     -1.92245411	      5.67440674	      0.16752557	      0.93342135	      0.38066842	    -14.10845838	      5.69550521	    -10.76398444	    -14.99030877	     18.27104839	     -5.81653727	      0.00000000	     -2.75790940	     -7.71484624	     -1.56626126	    -58.34674350	      8.43356593	     -4.19313131	      0.00000000	    -20.34010049	      2.86061608	     -2.44466022	     -8.53700770	     -1.92118223	     -3.92571920	    -10.67887280	    -13.07475691	     -2.05550580	     53.72866963	    -69.23111713	     -5.86323536	    -21.04779111	      2.20497243	     -6.36472982	    -11.06115564	     -4.44505651	     65.00981796	    -52.71673514	    -15.69311210	     -2.78797747	     28.58336822
      0.54000000	     16.36952955	     -1.73986934	      5.56509304	      0.17320467	      0.93368447	      0.38131907	    -14.73690431	      5.59753950	    -10.69097544	    -14.31878200	     18.35252557	     -5.79705193	      0.00000000	     -1.96251112	     -7.40524811	     -1.63168752	    -57.60587530	      8.96593819	     -4.32442084	      0.00000000	    -20.36793179	      2.54897098	     -2.29429016	     -8.35724919	     -1.84502994	     -3.99425480	    -10.30928501	    -13.21556069	     -2.01168614	     54.22291865	    -69.20734720	     -5.82727612	    -20.96045011	      2.24436786	     -6.71951975	    -10.96313105	     -4.65187247	     63.98696076	    -52.73713981	    -15.71099885	     -2.95859845	     28.50868833
      0.54500000	     16.79234515	     -1.04580448	      5.13027779	      0.17934841	      0.93491874	      0.38197930	    -15.93431786	      4.79510025	    -11.00486148	    -13.91308713	     18.79210899	     -4.92801956	      0.00000000	     -2.18513548	     -6.47528745	     -1.94583581	    -56.34025959	     10.20042783	     -4.11376242	      0.00000000	    -20.92512514	      1.66063261	     -1.82924374	     -8.52308085	     -1.72271165	     -4.15223304	    -10.02568773	    -13.33117065	     -2.07707901	     54.72956262	    -69.40878192	     -5.48640090	    -20.84399938	      2.47304929	     -6.94340779	    -10.83887182	     -4.76344514	     62.86164347	    -52.37996700	    -15.64333272	     -3.35977339	     28.01517719
      0.55000000	     16.73864682	     -0.90531670	      4.99256771	      0.18511702	      0.93504114	      0.38253732	    -16.48300580	      4.66478697	    -11.06485812	    -13.55046068	     18.92259924	     -4.71918391	      0.00000000	     -1.58651008	     -6.21671416	     -2.03357103	    -55.49283922	     10.63661979	     -4.05318619	      0.00000000	    -20.96593855	      1.40141866	     -1.61430090	     -8.44829066	     -1.61922940	     -4.19522294	     -9.70185866	    -13.49639668	     -2.14435926	     55.33077795	    -69.39984880	     -5.39196224	    -20.72733652	      2.54497545	     -7.25050360	    -10.63874050	     -5.09300971	     61.74326349	    -52.38246494	    -15.65053352	     -3.54324535	     27.90660540
      0.55500000	     17.01307699	     -0.41445488	      4.60710564	      0.19115460	      0.93577396	      0.38360046	    -17.46662544	      4.09507724	    -11.45852536	    -13.17293185	     19.42318358	     -3.31307523	      0.00000000	     -1.72538394	     -5.64851582	     -2.55296048	    -54.13063022	     11.43684514	     -3.69358728	      0.00000000	    -21.37208384	      0.67539171	     -1.20756139	     -8.51629433	     -1.46359428	     -4.41127614	     -9.38269589	    -13.49928006	     -2.37599708	     55.80637748	    -69.69614812	     -4.96698898	    -20.42442407	      2.77649757	     -7.51557158	    -10.61383408	     -5.24707805	     60.68838247	    -51.96653762	    -15.31416581	     -3.54699723	     27.50694138
      0.56000000	     16.96550766	     -0.30376816	      4.37918262	      0.19725316	      0.93586737	      0.38424871	    -18.10871935	      3.98951804	    -11.45433249	    -12.63702184	     19.38722375	     -2.95909501	      0.00000000	     -1.25553288	     -5.38458097	     -2.65375650	    -53.16883437	     11.78223940	     -3.69591163	      0.00000000	    -21.37696483	      0.42792697	     -0.89156681	     -8.56572876	     -1.40947520	     -4.47351254	     -9.15917982	    -13.74191661	     -2.34010275	     56.45009628	    -69.76570294	     -4.85760460	    -20.33632955	      2.85957505	     -7.85801325	    -10.44828177	     -5.59641568	     59.61968170	    -51.87055895	    -15.22161617	     -3.66397469	     27.40734160
      0.56500000	     17.37061861	      0.23415735	      3.90801171	      0.20364191	      0.93680000	      0.38536194	    -19.31589045	      3.38188542	    -11.79093027	    -12.05764296	     19.67134282	     -1.98721728	      0.00000000	     -1.40757938	     -4.80507723	     -3.27900681	    -52.03214492	     11.95725232	     -3.38197273	      0.00000000	    -21.86923227	     -0.38007939	     -0.45487183	     -8.58553710	     -1.30901138	     -4.82233787	     -8.78710415	    -13.75524178	     -2.48765234	     56.79870101	    -70.26518869	     -4.49661644	    -20.23523385	      3.12405871	     -8.14579167	    -10.45966001	     -5.72277769	     58.46814812	    -51.45256764	    -14.97218191	     -3.61031252	     26.94843859
      0.57000000	     17.31722835	      0.31551121	      3.83962919	      0.20958823	      0.93653261	      0.38566654	    -19.96553880	      3.35215445	    -11.85121782	    -11.52968337	     19.80268104	     -1.88442136	      0.00000000	     -0.61261488	     -4.65255286	     -3.45574717	    -51.45606065	     12.04812144	     -3.58972896	      0.00000000	    -21.89753511	     -0.54297635	     -0.27058492	     -8.50684186	     -1.27082998	     -4.86175057	     -8.47483527	    -13.98360073	     -2.50436301	     57.31952718	    -70.31109323	     -4.43737743	    -20.12754224	      3.19883326	     -8.47857701	    -10.27861901	     -6.08457570	     57.44009665	    -51.41874084	    -14.94113052	     -3.74291339	     26.83864463
